<svg xmlns="http://www.w3.org/2000/svg" viewBox="0 0 320 190"><path d="M191.3 137.8L188.1 137.9L183.3 142.8L180.6 142.3L178.9 142.2L179.9 140.3L184.9 132.7L183.5 129.6L181.9 123.3L178.5 120.3L177.8 119.1L179.6 115.1L179.5 113.5L174.5 107.6L169.2 99.7L165.3 95.6L162.7 93.5L150.1 93.6L143.9 95.6L133.7 95.4L127.2 97.4L125.6 102.0L124.3 104.1L122.9 106.2L119.9 111.7L114.0 115.0L112.0 119.7L109.1 121.3L106.1 120.7L104.1 120.4L104.3 116.3L101.1 112.1L96.4 106.8L93.8 104.0L92.6 97.8L92.2 95.6L89.1 96.7L83.3 92.0L82.6 89.3L79.0 89.6L66.3 77.3L67.0 71.8L64.4 73.2L62.1 68.1L59.8 65.2L57.2 65.7L54.7 69.8L53.8 65.8L56.7 62.0L63.2 49.9L66.5 49.1L74.5 45.6L80.4 45.0L91.7 42.5L91.7 35.9L89.3 33.2L86.8 30.6L85.5 28.5L88.3 27.0L91.7 26.5L93.1 23.2L91.7 17.4L101.1 15.4L106.2 16.0L110.4 16.2L111.0 17.7L111.1 20.4L113.2 20.3L114.8 19.2L118.7 21.5L123.8 23.1L128.5 23.7L133.3 25.1L140.5 23.1L147.2 23.4L157.4 22.5L158.5 23.7L156.9 27.5L156.4 29.9L161.8 34.3L164.5 34.0L168.7 29.7L172.5 28.7L176.2 33.8L178.2 37.2L179.9 37.7L181.6 36.5L186.0 30.7L189.6 29.2L194.6 29.6L204.6 33.5L207.7 33.5L211.3 29.4L216.6 27.4L218.5 26.5L218.5 24.0L216.9 21.1L219.7 20.4L224.9 21.6L228.3 24.6L230.8 31.6L233.5 40.4L234.7 45.1L236.7 46.0L239.3 49.9L243.6 52.0L245.7 53.3L244.9 55.1L242.2 57.2L238.0 63.0L238.5 64.4L240.9 64.2L245.5 63.2L248.2 65.5L247.9 69.1L248.5 75.3L250.5 80.5L257.6 85.2L257.5 88.6L254.9 91.4L252.7 94.2L253.0 102.9L254.6 110.1L258.3 110.9L260.1 113.6L261.8 118.2L263.6 120.3L259.0 123.3L258.6 128.9L265.3 133.2L266.4 140.0L264.7 141.0L262.3 138.3L258.5 138.0L252.3 137.6L250.3 138.6L249.8 144.6L253.1 146.7L255.8 147.0L256.9 149.7L255.1 152.5L253.8 157.2L251.2 164.0L247.0 164.0L243.2 165.0L240.9 163.0L239.7 161.2L236.7 162.0L236.0 165.4L235.0 167.6L232.5 171.9L230.1 173.5L229.0 173.7L224.9 175.0L223.3 173.2L220.7 170.3L217.0 169.8L214.9 169.1L216.4 166.4L217.7 162.6L216.9 158.0L215.4 154.7L215.3 151.3L214.7 148.9L213.6 146.9L213.4 141.9L210.7 140.2L209.1 138.1L208.1 137.9L207.1 138.7L205.7 136.2L197.6 139.4L196.6 137.2L192.7 137.7L191.3 137.8Z" fill="#c48650" stroke="#815437" stroke-width="1.25" fill-rule="evenodd" vector-effect="non-scaling-stroke"/></svg>