<svg xmlns="http://www.w3.org/2000/svg" viewBox="0 0 320 190"><path d="M195.6 15.3L195.0 16.7L196.1 17.3L197.4 19.4L195.0 22.3L194.2 22.0L193.4 22.6L190.5 21.4L188.9 20.8L187.6 20.8L187.4 19.9L186.8 19.1L185.8 19.1L185.2 20.8L183.7 21.1L181.3 24.0L180.5 26.6L179.4 26.3L179.2 28.7L178.1 29.3L177.0 29.0L178.9 32.7L179.2 35.1L182.1 34.2L181.8 37.7L180.7 40.6L179.7 41.8L177.6 42.9L176.0 38.9L174.9 39.7L173.6 40.0L171.2 42.3L169.9 39.1L171.0 38.3L169.6 37.7L166.7 38.0L165.4 36.8L164.6 36.5L164.4 34.8L163.3 35.1L161.7 40.6L159.6 40.6L161.2 36.2L160.4 28.1L158.3 25.8L153.3 20.5L150.9 16.7L140.8 19.1L139.0 19.4L137.1 20.5L136.1 19.7L134.8 20.8L132.9 22.3L132.6 24.3L129.7 24.0L127.6 23.7L129.2 30.1L131.9 32.5L131.9 34.2L134.0 36.2L135.3 36.2L135.3 37.4L135.0 37.4L133.7 37.4L131.6 38.6L132.1 39.4L134.5 40.6L135.0 45.0L137.4 45.3L136.1 45.5L134.5 48.7L133.2 48.7L130.8 47.9L130.0 48.7L129.5 48.5L130.0 50.5L128.7 51.4L128.4 53.4L126.6 52.8L126.6 54.6L127.1 61.8L123.9 57.8L120.7 59.2L119.2 69.1L114.7 68.2L110.2 71.1L109.9 72.6L111.0 74.6L110.2 79.6L105.9 87.7L104.1 89.5L93.5 101.7L98.5 106.9L104.9 114.2L109.9 122.1L114.7 131.1L119.2 137.2L128.4 147.4L132.9 150.0L140.0 155.8L141.6 159.6L146.7 162.8L157.0 165.7L164.1 168.6L168.3 175.0L177.8 168.6L174.4 161.6L172.6 157.5L171.8 156.1L173.1 149.1L172.8 138.6L170.7 131.7L171.8 130.5L173.9 130.5L177.8 127.9L182.3 125.5L185.0 121.5L186.6 120.6L188.1 121.8L188.7 122.9L189.2 120.6L192.1 121.2L195.3 120.3L196.3 119.7L200.8 117.1L201.6 115.1L202.4 111.6L204.8 110.4L202.2 107.8L203.2 106.3L206.1 104.6L206.1 102.0L209.6 103.4L211.7 104.3L214.1 104.6L216.4 104.6L218.3 104.3L219.9 104.9L220.9 103.4L222.0 101.4L223.6 99.9L226.2 97.6L223.0 98.8L220.4 99.4L217.0 100.2L216.2 101.4L211.4 98.8L214.1 97.3L216.7 97.0L218.8 97.9L218.8 96.5L220.7 92.1L220.9 89.8L223.0 87.4L226.5 82.5L221.7 81.0L218.5 82.5L215.4 83.4L213.5 83.1L214.1 78.7L212.5 75.2L216.7 75.2L218.0 78.7L220.9 78.4L221.5 77.3L221.7 74.3L222.0 71.4L219.9 71.4L218.0 71.1L216.2 74.1L215.1 72.6L211.7 71.4L210.9 70.0L205.9 70.0L204.0 72.3L202.4 72.6L200.0 72.3L201.9 70.6L203.2 67.7L205.3 66.5L206.7 61.3L208.8 59.5L209.8 56.9L206.9 56.6L206.1 58.1L204.3 56.3L201.9 56.9L200.0 56.3L199.8 55.1L202.7 54.3L200.6 51.7L201.1 51.9L200.6 54.0L197.9 55.4L197.4 56.3L195.0 58.1L192.4 57.5L193.4 54.3L194.0 55.4L196.3 55.1L197.7 53.7L196.9 52.2L198.7 51.4L200.0 49.3L200.8 50.8L202.7 49.3L204.0 49.9L206.4 51.9L211.9 49.9L211.4 48.5L209.0 47.0L212.7 46.1L217.5 48.5L217.8 44.4L218.5 43.8L219.6 41.5L220.7 40.0L220.7 38.0L219.9 36.8L219.3 34.5L220.9 33.0L221.7 30.1L221.5 26.9L217.8 25.2L212.7 24.9L211.1 26.9L212.5 28.7L210.4 29.5L207.4 28.4L205.6 24.9L205.6 22.0L206.4 18.2L204.0 15.3L202.2 15.0L199.0 15.6L195.6 15.3Z" fill="#c48650" stroke="#815437" stroke-width="1.25" fill-rule="evenodd" vector-effect="non-scaling-stroke"/></svg>