<svg xmlns="http://www.w3.org/2000/svg" viewBox="0 0 320 190"><path d="M218.3 124.4L210.6 136.5L200.9 152.1L189.7 169.8L182.7 169.8L177.3 168.8L173.6 165.9L166.0 162.6L157.4 162.3L149.1 165.4L135.2 169.2L122.7 170.4L112.6 172.6L104.2 175.0L96.6 173.6L90.1 171.5L88.7 152.6L87.1 132.3L87.3 116.4L89.6 107.6L91.7 104.1L103.5 92.0L107.6 87.1L121.2 67.0L132.8 49.8L141.5 37.0L144.2 34.5L147.8 32.0L150.4 32.6L167.3 45.0L170.3 44.8L175.9 40.9L181.0 27.7L184.7 22.8L186.2 23.0L197.1 19.3L206.9 15.0L208.1 19.4L223.0 37.2L227.9 46.0L232.9 62.0L230.2 70.9L226.4 76.7L220.6 81.9L200.8 94.6L178.7 102.8L164.7 119.0L154.2 117.9L155.8 124.0L159.7 124.7L165.8 123.5L177.9 118.8L188.7 116.5L200.3 116.4L210.9 118.4L218.3 124.4Z" fill="#c48650" stroke="#815437" stroke-width="1.25" fill-rule="evenodd" vector-effect="non-scaling-stroke"/></svg>